name rise30.3154peak39.0474fall46.5389.mot
datacolumns 19
datarows 14
range 0.87334800000000 0.89500300000000
endheader
time	ground_force1_vx	ground_force1_vy	ground_force1_vz	ground_force1_px	ground_force1_py	ground_force1_pz	ground_force2_vx	ground_force2_vy	ground_force2_vz	ground_force2_px	ground_force2_py	ground_force2_pz	ground_torque1_x	ground_torque1_y	ground_torque1_z	ground_torque2_x	ground_torque2_y	ground_torque2_z	
0.87334800000000	-44.70302800000000	804.20640800000001	58.90905900000000	0.10267000000000	0.00000000000000	0.10504200000000	-6.15914700000000	41.97146000000000	7.62334700000000	0.30045500000000	0.00000000000000	-0.08589600000000	0.00000000000000	20.30940200000000	0.00000000000000	0.00000000000000	4.28119000000000	0.00000000000000	
0.87499900000000	-44.39621700000000	799.96590300000003	58.47601400000000	0.10230400000000	0.00000000000000	0.10491800000000	-6.75135200000000	48.98579600000000	8.56021000000000	0.30685000000000	0.00000000000000	-0.08658100000000	0.00000000000000	20.07118900000000	0.00000000000000	0.00000000000000	4.89295200000000	0.00000000000000	
0.87666600000000	-44.11606100000000	795.62383399999999	58.02275900000000	0.10195600000000	0.00000000000000	0.10478700000000	-7.22366200000000	56.03510800000000	9.40658500000000	0.31287000000000	0.00000000000000	-0.08719800000000	0.00000000000000	19.83764300000000	0.00000000000000	0.00000000000000	5.47151100000000	0.00000000000000	
0.87833200000000	-43.86395800000000	791.18377899999996	57.54969800000000	0.10162500000000	0.00000000000000	0.10465000000000	-7.55825800000000	63.02483500000000	10.14204900000000	0.31855300000000	0.00000000000000	-0.08775700000000	0.00000000000000	19.60916600000000	0.00000000000000	0.00000000000000	6.00353600000000	0.00000000000000	
0.87999800000000	-43.64119900000000	786.64920800000004	57.05726200000000	0.10131300000000	0.00000000000000	0.10450600000000	-7.74408500000000	69.88504399999999	10.75304100000000	0.32393100000000	0.00000000000000	-0.08826800000000	0.00000000000000	19.38612400000000	0.00000000000000	0.00000000000000	6.47922500000000	0.00000000000000	
0.88166400000000	-43.44896700000000	782.02346899999998	56.54590700000000	0.10102000000000	0.00000000000000	0.10435500000000	-7.77677800000000	76.57240500000000	11.23294700000000	0.32902900000000	0.00000000000000	-0.08873900000000	0.00000000000000	19.16885100000000	0.00000000000000	0.00000000000000	6.89255400000000	0.00000000000000	
0.88333900000000	-43.28833000000000	777.30976999999996	56.01611500000000	0.10074600000000	0.00000000000000	0.10419900000000	-7.65806500000000	83.06965599999999	11.58159700000000	0.33386700000000	0.00000000000000	-0.08917400000000	0.00000000000000	18.95764300000000	0.00000000000000	0.00000000000000	7.24118400000000	0.00000000000000	
0.88500100000000	-43.16023400000000	772.51117099999999	55.46838800000000	0.10049200000000	0.00000000000000	0.10403500000000	-7.39477100000000	89.38300599999999	11.80432700000000	0.33846500000000	0.00000000000000	-0.08957900000000	0.00000000000000	18.75276300000000	0.00000000000000	0.00000000000000	7.52607100000000	0.00000000000000	
0.88666500000000	-43.06549800000000	767.63057000000003	54.90325200000000	0.10025700000000	0.00000000000000	0.10386500000000	-6.99757900000000	95.53805900000000	11.91074400000000	0.34283500000000	0.00000000000000	-0.08995900000000	0.00000000000000	18.55443300000000	0.00000000000000	0.00000000000000	7.75087800000000	0.00000000000000	
0.88833600000000	-43.00481200000000	762.67069000000004	54.32124900000000	0.10004200000000	0.00000000000000	0.10368900000000	-6.47970200000000	101.57484800000000	11.91336300000000	0.34699100000000	0.00000000000000	-0.09031800000000	0.00000000000000	18.36283800000000	0.00000000000000	0.00000000000000	7.92125200000000	0.00000000000000	
0.88999800000000	-42.97873100000000	757.63407099999995	53.72293900000000	0.09984600000000	0.00000000000000	0.10350600000000	-5.85556700000000	107.54254000000000	11.82623900000000	0.35094300000000	0.00000000000000	-0.09065700000000	0.00000000000000	18.17812600000000	0.00000000000000	0.00000000000000	8.04406100000000	0.00000000000000	
0.89166400000000	-42.98766800000000	752.52306099999998	53.10889600000000	0.09966800000000	0.00000000000000	0.10331700000000	-5.13965000000000	113.49431800000001	11.66370900000000	0.35470000000000	0.00000000000000	-0.09098100000000	0.00000000000000	18.00040300000000	0.00000000000000	0.00000000000000	8.12666400000000	0.00000000000000	
0.89333000000000	-43.03189800000000	747.33981000000006	52.47970700000000	0.09951000000000	0.00000000000000	0.10312200000000	-4.34549200000000	119.48278900000000	11.43933600000000	0.35827000000000	0.00000000000000	-0.09129100000000	0.00000000000000	17.82973800000000	0.00000000000000	0.00000000000000	8.17625600000000	0.00000000000000	
0.89500300000000	-43.11154500000000	742.08626000000004	51.83597100000000	0.09936900000000	0.00000000000000	0.10292100000000	-3.48497800000000	125.55622000000000	11.16508200000000	0.36166100000000	0.00000000000000	-0.09158900000000	0.00000000000000	17.66616100000000	0.00000000000000	0.00000000000000	8.19934100000000	0.00000000000000	
